<svg version="1.0" xmlns="http://www.w3.org/2000/svg"
 width="236.000000pt" height="237.000000pt" viewBox="0 0 236.000000 244.000000"
 preserveAspectRatio="xMidYMid meet">
<g transform="translate(0.000000,244.000000) scale(0.100000,-0.100000)"
fill="#5e72e4" stroke="none">
<path d="M326 2137 c-25 -14 -48 -39 -63 -66 l-23 -44 0 -634 0 -633 940 0
940 0 0 633 0 634 -23 44 c-15 27 -38 52 -63 66 l-39 23 -815 0 -815 0 -39
-23z m1564 -672 l0 -475 -710 0 -710 0 0 475 0 475 710 0 710 0 0 -475z"/>
<path d="M833 1607 c-70 -70 -123 -131 -123 -142 0 -24 248 -275 272 -275 25
0 87 57 94 87 6 21 -5 37 -72 104 l-79 79 78 78 c42 42 77 85 77 95 0 9 -16
35 -36 57 -58 64 -69 59 -211 -83z"/>
<path d="M1316 1690 c-20 -22 -36 -48 -36 -57 0 -10 35 -53 77 -95 l78 -78
-79 -79 c-67 -67 -78 -83 -72 -104 7 -30 69 -87 94 -87 24 0 272 251 272 275
0 11 -53 72 -123 142 -142 142 -153 147 -211 83z"/>
<path d="M28 619 c-15 -8 -18 -24 -18 -87 0 -102 35 -167 113 -212 l52 -30
1005 0 1005 0 52 30 c78 45 113 110 113 212 0 66 -3 79 -19 88 -13 6 -178 10
-468 10 l-448 0 -16 -39 c-29 -68 -52 -76 -224 -76 -140 0 -152 1 -182 23 -18
12 -38 38 -44 57 l-13 35 -446 0 c-283 0 -451 -4 -462 -11z"/>
</g>
</svg>
