<svg version="1.2" xmlns="http://www.w3.org/2000/svg" viewBox="0 0 42 77" width="42" height="77">
	<title>Sanrove White-svg</title>
	<defs>
		<clipPath clipPathUnits="userSpaceOnUse" id="cp1">
			<path d="m10 14h23.51v48h-23.51z"/>
		</clipPath>
	</defs>
	<style>
		.s0 { fill: #ffffff } 
	</style>
	<path id="Layer" fill-rule="evenodd" class="s0" d="m52.1 36.3q0 0.7-0.5 1.2-0.5 0.5-1.2 0.5h-6.7v-1.7h6.5v-3.3h-4.8q-0.7 0-1.2-0.5-0.5-0.5-0.5-1.2v-3.4q0-0.7 0.5-1.2 0.5-0.5 1.2-0.5h6.7v1.7h-6.5v3.4h4.8q0.7 0 1.2 0.5 0.5 0.5 0.5 1.2zm13.9 1.6h-1.9v-3.3h-6.3v3.3h-1.9v-10q0-0.7 0.5-1.2 0.5-0.5 1.2-0.5h8.4zm-1.9-5.1v-5h-6.3v6.5l1.5-1.5zm16.3 5.1h-3.4l-4.5-10h-1l0.7 1.2v8.8h-1.9v-11.8h3.4l4.5 10h1l-0.7-1.2v-8.8h1.9zm14.6 0h-2.4l-5-5h5.3v-5.1h-6.3v10.1h-1.9v-8.4l1.7-1.7h-1.7v-1.6h8.4q0.7 0 1.2 0.5 0.5 0.5 0.5 1.1v4.6q0 1.9-1.7 1.9h-1.4v0.3zm13.4-1.7q0 0.7-0.5 1.2-0.5 0.5-1.2 0.5h-6.7q-0.7 0-1.2-0.5-0.5-0.5-0.5-1.2v-8.4q0-0.7 0.5-1.2 0.5-0.5 1.2-0.5h6.7q0.7 0 1.2 0.5 0.5 0.5 0.5 1.2zm-1.9 0v-8.4h-6.2v8.4zm16.6-10.1l-4.5 11.8h-3.1l-4.4-11.8h2.2l3.6 10.2h0.5l3.6-10.2zm11.2 11.8h-8.4v-8.4l1.7-1.7h-1.7v-1.7h8.4v1.7h-6.4v4.8l1.4-1.4h5v1.6h-6.4v3.4h6.4z"/>
	<path id="Layer" fill-rule="evenodd" class="s0" d="m48.8 46.4h-2.7v7.6h-1.4v-7.6h-2.6v-1.2h6.7zm8 7.5h-5.1q-0.5 0-0.9-0.3-0.3-0.4-0.3-0.9v-3.8q0-0.5 0.3-0.9 0.4-0.4 0.9-0.4h3.8q0.5 0 0.9 0.4 0.4 0.4 0.4 0.9v1.3l-1.3 1.2h-3.6l1.1-1.1h2.5v-1.6h-3.8v4.2h5.1zm7.7-6.3l-1.1 1h-3v4.2h3.7v1.1h-3.7q-0.6 0-0.9-0.4-0.4-0.4-0.4-0.9v-3.8q0-0.5 0.4-0.9 0.3-0.3 0.9-0.3zm8.1 6.3h-1.3v-5.3h-3.8v5.3h-1.2v-9.2l1.2-1.3v5.1l0.9-0.9h2.9q0.5 0 0.9 0.3 0.4 0.4 0.4 0.9zm9.1 0h-1.2v-5.2h-3.8v5.2h-1.3v-6.3h1.3v0.9l0.9-0.9h2.9q0.5 0 0.9 0.4 0.3 0.4 0.3 0.9zm9.2-1.3q0 0.5-0.4 0.9-0.3 0.4-0.8 0.4h-3.8q-0.5 0-0.9-0.4-0.4-0.4-0.4-0.9v-3.8q0-0.5 0.4-0.8 0.4-0.4 0.9-0.4h3.8q0.5 0 0.8 0.4 0.4 0.3 0.4 0.8zm-1.2 0.2v-4.1h-3.8v4.1zm5.6 1.1h-1.3v-9.2l1.3-1.2zm9.3-1.3q0 0.5-0.3 0.9-0.4 0.4-0.9 0.4h-3.8q-0.5 0-0.9-0.4-0.4-0.4-0.4-0.9v-3.8q0-0.5 0.4-0.9 0.4-0.3 0.9-0.3h3.8q0.5 0 0.9 0.3 0.3 0.4 0.3 0.9zm-1.2 0.2v-4.1h-3.8v4.1zm11.2-5.2l-1.1 1.1h-4.5v4.1h3.8v-3.6h1.2v7.2q0 0.5-0.4 0.9-0.3 0.4-0.8 0.4h-5.3l1.1-1.1h4.2v-3.6l-1.1 0.9h-2.7q-0.5 0-0.9-0.4-0.4-0.4-0.4-0.9v-3.8q0-0.5 0.4-0.8 0.4-0.4 0.9-0.4zm3.7-1.1h-1.3v-1.4h1.3zm0 7.3h-1.3v-5.4l1.3-1.2zm9.1 0h-5q-0.5 0-0.9-0.4-0.4-0.4-0.4-0.9v-3.8q0-0.5 0.4-0.8 0.4-0.4 0.9-0.4h3.8q0.5 0 0.9 0.4 0.3 0.3 0.3 0.8v1.3l-1.2 1.3h-3.6l1.1-1.1h2.5v-1.6h-3.8v4.1h5zm7.5-6.3l-1.1 1.1h-3v1.4h2.5q0.5 0 0.9 0.4 0.4 0.4 0.4 0.9v1.2q0 0.6-0.4 0.9-0.4 0.4-0.9 0.4h-3.8v-1.1h3.8v-1.6h-2.5q-0.5 0-0.9-0.4-0.4-0.3-0.4-0.9v-1q0-0.6 0.4-0.9 0.4-0.4 0.9-0.4z"/>
	<g id="Clip-Path" clip-path="url(#cp1)">
		<g id="Layer">
			<path id="Layer" class="s0" d="m33.3 19.4c0.1 2.8-1.1 4.6-3.5 6-3 1.7-6 3.5-9 5.2-3.3 1.9-4.2 4.2-1.8 7.2-0.8 1.7-3.4 1.4-4.9 1.1-1.7-1-2.2-3.1-2.1-4.9 0.2-2.6 1.5-5 3.4-6.7q8.9-6.7 17.9-13.3 0 2.7 0 5.4z"/>
			<path id="Layer" class="s0" d="m19 37.8c0 0-0.3-0.3-0.9-0.8-2.9-2.5-6.5-6.3-2.7-9.7q-1.9 1.4-3.2 3.3c-2.7 3.5-2.2 9.3-2.1 13.6 0.1 2 2.6 2.5 4.1 1.7 1.7-0.9 3.6-1.9 5.3-2.8 2.5-1.4 1.3-3.9-0.5-5.3z"/>
			<path id="Layer" class="s0" d="m10.2 56.6c-0.1-2.8 1.1-4.6 3.5-6 3-1.7 6.1-3.5 9-5.2 3.3-1.9 4.2-4.2 1.8-7.2 0.8-1.7 3.5-1.4 4.9-1.1 1.7 1 2.2 3.1 2.1 4.9-0.2 2.6-1.5 5-3.4 6.7q-8.9 6.7-17.9 13.3 0-2.7 0-5.4z"/>
			<path id="Layer" class="s0" d="m24.5 38.2c0 0 0.4 0.3 0.9 0.8 2.9 2.5 6.5 6.3 2.7 9.7q1.9-1.4 3.2-3.3c2.7-3.5 2.2-9.3 2.1-13.6-0.1-2.1-2.5-2.5-4.1-1.7-1.7 0.9-3.6 1.9-5.2 2.8-2.6 1.4-1.3 3.9 0.4 5.3z"/>
		</g>
	</g>
</svg>